<svg width="2053" height="1370" xmlns="http://www.w3.org/2000/svg">
  <defs>
    <linearGradient id="gal1bg" x1="0%" y1="0%" x2="100%" y2="100%">
      <stop offset="0%" style="stop-color:#2a2512;stop-opacity:1" />
      <stop offset="100%" style="stop-color:#2a0f0f;stop-opacity:1" />
    </linearGradient>
    <linearGradient id="marble" x1="0%" y1="0%" x2="100%" y2="100%">
      <stop offset="0%" style="stop-color:#C9A959;stop-opacity:0.08" />
      <stop offset="50%" style="stop-color:#f5f5f5;stop-opacity:0.12" />
      <stop offset="100%" style="stop-color:#C9A959;stop-opacity:0.08" />
    </linearGradient>
    <pattern id="chandelier" x="0" y="0" width="40" height="40" patternUnits="userSpaceOnUse">
      <circle cx="20" cy="20" r="2" fill="#C9A959" opacity="0.4"/>
    </pattern>
  </defs>

  <!-- Background -->
  <rect width="2053" height="1370" fill="url(#gal1bg)"/>

  <!-- Reception Hall with High Ceiling -->
  <g opacity="0.85">
    <!-- Marble Floor -->
    <rect y="900" width="2053" height="470" fill="url(#marble)"/>
    <line x1="0" y1="1000" x2="2053" y2="1000" stroke="#C9A959" stroke-width="2" opacity="0.35"/>
    <line x1="0" y1="1150" x2="2053" y2="1150" stroke="#C9A959" stroke-width="2" opacity="0.35"/>

    <!-- Grand Chandelier -->
    <ellipse cx="1026" cy="200" rx="180" ry="40" fill="none" stroke="#C9A959" stroke-width="3" opacity="0.5"/>
    <line x1="1026" y1="100" x2="1026" y2="200" stroke="#C9A959" stroke-width="4" opacity="0.6"/>

    <!-- Chandelier crystals -->
    <g opacity="0.6">
      <line x1="1026" y1="240" x2="1026" y2="320" stroke="#C9A959" stroke-width="2"/>
      <line x1="950" y1="240" x2="950" y2="300" stroke="#C9A959" stroke-width="1.5"/>
      <line x1="1102" y1="240" x2="1102" y2="300" stroke="#C9A959" stroke-width="1.5"/>
      <line x1="880" y1="240" x2="880" y2="280" stroke="#C9A959" stroke-width="1"/>
      <line x1="1172" y1="240" x2="1172" y2="280" stroke="#C9A959" stroke-width="1"/>
      <circle cx="1026" cy="320" r="8" fill="#C9A959" opacity="0.7"/>
      <circle cx="950" cy="300" r="6" fill="#C9A959" opacity="0.5"/>
      <circle cx="1102" cy="300" r="6" fill="#C9A959" opacity="0.5"/>
    </g>

    <!-- Ornate Walls with Panels -->
    <rect x="200" y="400" width="500" height="500" fill="none" stroke="#C9A959" stroke-width="3" opacity="0.4"/>
    <rect x="220" y="420" width="460" height="460" fill="none" stroke="#C9A959" stroke-width="1.5" opacity="0.3"/>
    <path d="M 220 650 Q 450 600 680 650" stroke="#C9A959" stroke-width="2" opacity="0.25" fill="none"/>

    <rect x="1353" y="400" width="500" height="500" fill="none" stroke="#C9A959" stroke-width="3" opacity="0.4"/>
    <rect x="1373" y="420" width="460" height="460" fill="none" stroke="#C9A959" stroke-width="1.5" opacity="0.3"/>
    <path d="M 1373 650 Q 1603 600 1833 650" stroke="#C9A959" stroke-width="2" opacity="0.25" fill="none"/>

    <!-- Central Archway -->
    <path d="M 750 900 L 750 500 Q 750 400 850 400 L 1202 400 Q 1302 400 1302 500 L 1302 900"
          fill="none" stroke="#C9A959" stroke-width="4" opacity="0.6"/>
    <path d="M 770 550 Q 1026 350 1282 550" fill="none" stroke="#C9A959" stroke-width="2.5" opacity="0.5"/>

    <!-- Decorative Moldings -->
    <line x1="0" y1="350" x2="2053" y2="350" stroke="#C9A959" stroke-width="3" opacity="0.3"/>
    <line x1="0" y1="360" x2="2053" y2="360" stroke="#C9A959" stroke-width="1.5" opacity="0.5"/>

    <!-- Statement Furniture Silhouettes -->
    <!-- Console Table -->
    <rect x="450" y="800" width="250" height="15" fill="#C9A959" opacity="0.5"/>
    <line x1="480" y1="800" x2="480" y2="900" stroke="#C9A959" stroke-width="8" opacity="0.25"/>
    <line x1="670" y1="800" x2="670" y2="900" stroke="#C9A959" stroke-width="8" opacity="0.25"/>

    <!-- Decorative Vase on Console -->
    <ellipse cx="575" cy="740" rx="40" ry="60" fill="none" stroke="#C9A959" stroke-width="2" opacity="0.3"/>
    <path d="M 535 740 Q 575 700 615 740" fill="none" stroke="#C9A959" stroke-width="1.5" opacity="0.25"/>

    <!-- Seating Area -->
    <rect x="1400" y="820" width="180" height="80" rx="10" fill="none" stroke="#C9A959" stroke-width="2" opacity="0.3"/>
    <line x1="1430" y1="900" x2="1430" y2="950" stroke="#C9A959" stroke-width="6" opacity="0.5"/>
    <line x1="1550" y1="900" x2="1550" y2="950" stroke="#C9A959" stroke-width="6" opacity="0.5"/>

    <!-- Art Piece Frames -->
    <rect x="280" y="500" width="320" height="250" fill="none" stroke="#C9A959" stroke-width="2.5" opacity="0.35"/>
    <rect x="1453" y="500" width="320" height="250" fill="none" stroke="#C9A959" stroke-width="2.5" opacity="0.35"/>

    <!-- Ambient Light Glow -->
    <circle cx="450" cy="650" r="120" fill="#C9A959" opacity="0.35"/>
    <circle cx="1603" cy="650" r="120" fill="#C9A959" opacity="0.35"/>
  </g>

  <!-- Label -->
  <text x="1026" y="1320" text-anchor="middle" fill="#C9A959" opacity="0.35" font-family="serif" font-size="20" font-weight="300" letter-spacing="6">RECEPTION · CENTRAL DELHI</text>
</svg>
